<svg version="1.1" xmlns="http://www.w3.org/2000/svg" width="312" height="312">

<path d="M0 0 C1.71255981 0.00858032 1.71255981 0.00858032 3.4597168 0.01733398 C22.07013676 0.40710161 38.5376198 6.91566794 52.0625 19.96875 C59.93743615 28.36177405 64.50607452 38.13027382 64.9375 49.75 C64.248651 68.92296381 55.99471353 85.56698238 42.1875 98.75 C37.1245333 103.07844303 31.50261304 105.83034914 25.4375 108.5 C24.73753906 108.83 24.03757813 109.16 23.31640625 109.5 C17.56589469 111.9867077 11.62910126 112.16329301 5.4375 112.5 C5.40519287 113.40878906 5.37288574 114.31757813 5.33959961 115.25390625 C4.8767294 124.66821552 3.34173856 133.34289607 1 142.5 C-1.24723932 151.39628762 -3.04572953 160.04098458 -3.95727539 169.16015625 C-4.64230074 172.94036873 -5.77040204 176.70790204 -8.5625 179.5 C-11.3828125 179.828125 -11.3828125 179.828125 -14.5625 179.5 C-16.6171875 177.671875 -16.6171875 177.671875 -18.4375 175.25 C-22.85144089 169.96159913 -26.44145987 166.87869017 -33.453125 166.234375 C-37.83310675 166.16834512 -42.02202128 166.42841709 -46.3671875 167.00390625 C-64.75138551 169.3880933 -82.86379256 167.49528131 -98.125 156.3125 C-112.51976284 144.45202639 -121.98669075 127.61791997 -123.9375 108.90234375 C-124.34815189 97.10893485 -120.62538712 86.92783574 -113.5625 77.5 C-111.04093597 74.96022973 -108.40178792 72.67630698 -105.5625 70.5 C-107.22539063 70.31824219 -107.22539063 70.31824219 -108.921875 70.1328125 C-110.38546234 69.96393704 -111.84900157 69.79464428 -113.3125 69.625 C-114.04210937 69.54636719 -114.77171875 69.46773438 -115.5234375 69.38671875 C-119.23027257 68.94863824 -122.36702172 68.5013785 -125.5625 66.5 C-125.58936553 64.52090602 -125.60883375 62.54171029 -125.625 60.5625 C-125.63660156 59.46035156 -125.64820313 58.35820313 -125.66015625 57.22265625 C-125.5625 54.5 -125.5625 54.5 -124.5625 53.5 C-121.61347037 53.05398423 -118.67523772 52.66327203 -115.71484375 52.30859375 C-114.8284169 52.19902847 -113.94199005 52.0894632 -113.02870178 51.97657776 C-110.18627949 51.62618842 -107.34316748 51.28178513 -104.5 50.9375 C-102.57742572 50.70156461 -100.65489897 50.46524161 -98.73242188 50.22851562 C-94.00965511 49.64783799 -89.2862612 49.07252932 -84.5625 48.5 C-97.09244907 49.77034893 -109.57750275 51.22907468 -122.05981445 52.90087891 C-124.05913094 53.16777047 -126.05885689 53.43158915 -128.05859375 53.6953125 C-129.21544678 53.85016113 -130.3722998 54.00500977 -131.56420898 54.16455078 C-134.5625 54.5 -134.5625 54.5 -138.5625 54.5 C-137.59473902 58.29547921 -137.59473902 58.29547921 -135.5625 61.5 C-135.42291067 64.01260796 -135.47097194 66.1545138 -136.1171875 68.59375 C-136.75141938 72.73294756 -136.26338639 76.60397728 -135.8125 80.75 C-135.72178223 81.63534424 -135.63106445 82.52068848 -135.53759766 83.43286133 C-134.92579609 89.08115498 -134.03626638 94.61616995 -132.9375 100.1875 C-131.27563096 108.64801585 -131.27215452 116.90792437 -131.5625 125.5 C-132.2225 124.18 -132.8825 122.86 -133.5625 121.5 C-134.2225 121.5 -134.8825 121.5 -135.5625 121.5 C-136.2225 119.52 -136.8825 117.54 -137.5625 115.5 C-138.2225 115.5 -138.8825 115.5 -139.5625 115.5 C-140.69262105 105.24099813 -140.67910861 95.05309541 -140.625 84.75 C-140.61997197 83.07031384 -140.61541138 81.39062622 -140.61132812 79.7109375 C-140.60043264 75.64058804 -140.58324084 71.57031071 -140.5625 67.5 C-142.0475 67.005 -142.0475 67.005 -143.5625 66.5 C-143.76084137 62.23566065 -143.24860848 59.39663652 -141.5625 55.5 C-142.22781738 55.59087891 -142.89313477 55.68175781 -143.57861328 55.77539062 C-146.6143675 56.18769923 -149.65090905 56.59390169 -152.6875 57 C-153.73421875 57.14308594 -154.7809375 57.28617188 -155.859375 57.43359375 C-160.78945492 58.08885754 -165.57546747 58.70707401 -170.5625 58.5 C-168.11162878 55.75545475 -165.45855299 54.17897627 -162.2421875 52.41796875 C-161.16122803 51.82234131 -160.08026855 51.22671387 -158.96655273 50.61303711 C-158.10403397 50.14243362 -158.10403397 50.14243362 -157.22409058 49.662323 C-155.41645687 48.67601817 -153.61222483 47.68374346 -151.80883789 46.68969727 C-149.30824267 45.31157578 -146.80657537 43.93543164 -144.30419922 42.56054688 C-138.52118248 39.37965361 -132.75986389 36.16010407 -127 32.9375 C-125.99759277 32.37893311 -124.99518555 31.82036621 -123.96240234 31.24487305 C-123.00414551 30.70902588 -122.04588867 30.17317871 -121.05859375 29.62109375 C-120.12861572 29.10450195 -119.1986377 28.58791016 -118.24047852 28.05566406 C-116.50359163 27.04668938 -114.79701821 25.98285949 -113.13256836 24.85839844 C-106.14829689 20.19318187 -99.49830485 18.98611685 -91.25 17.875 C-89.891239 17.67524322 -88.53276183 17.47354716 -87.17456055 17.27001953 C-82.97471286 16.64846978 -78.76966386 16.06963059 -74.5625 15.5 C-73.88513794 15.40783203 -73.20777588 15.31566406 -72.5098877 15.22070312 C-70.50928374 14.94856791 -68.50855342 14.67737621 -66.5078125 14.40625 C-65.22430908 14.23174316 -63.94080566 14.05723633 -62.6184082 13.87744141 C-60.19890478 13.55269491 -57.77820967 13.23665512 -55.35620117 12.93115234 C-44.83418738 11.5597438 -35.04444412 9.58797179 -25.5234375 4.78125 C-17.01007355 1.09736692 -9.25730966 -0.05408027 0 0 Z " fill="#FE914E" transform="translate(204.5625,67.5)" data-index="1"></path>
<path d="M0 0 C15.52088038 -0.57484742 29.48143927 5.03509522 42 14 C42.95132813 14.67289063 42.95132813 14.67289063 43.921875 15.359375 C53.88299518 23.12722101 61.69222122 35.5379946 64 48 C64.79007332 60.94504743 62.66816452 72.82379985 59.7578125 85.37109375 C59.54133057 86.3048584 59.32484863 87.23862305 59.10180664 88.20068359 C58.6606227 90.10129297 58.21711784 92.00136517 57.77124023 93.90087891 C56.23867759 100.55887623 55.19487313 107.09842228 54.5546875 113.90625 C53.89422516 117.58995547 52.71366536 121.28633464 50 124 C47.1796875 124.328125 47.1796875 124.328125 44 124 C41.9453125 122.171875 41.9453125 122.171875 40.125 119.75 C35.71105911 114.46159913 32.12104013 111.37869017 25.109375 110.734375 C20.72939325 110.66834512 16.54047872 110.92841709 12.1953125 111.50390625 C-6.18888551 113.8880933 -24.30129256 111.99528131 -39.5625 100.8125 C-53.95726284 88.95202639 -63.42419075 72.11791997 -65.375 53.40234375 C-65.79030199 41.47538973 -61.96201832 31.59458106 -55 22 C-54.44441406 21.23042969 -53.88882813 20.46085937 -53.31640625 19.66796875 C-47.12127796 12.74986775 -39.93636668 12.95581275 -31.2421875 12.421875 C-26.22735188 12.09236568 -21.49757045 11.20409128 -16.625 10 C-15.60116211 9.75008301 -15.60116211 9.75008301 -14.55664062 9.49511719 C-11.57648895 8.74040345 -8.67685027 7.88732794 -5.7734375 6.875 C-3 6 -3 6 1 6 C0.505 3.03 0.505 3.03 0 0 Z " fill="#0197B2" transform="translate(146,123)" data-index="2"></path>
<path d="M0 0 C-3.58853588 3.00403636 -7.25824698 5.44651035 -11.3046875 7.79296875 C-11.90159897 8.14080414 -12.49851044 8.48863953 -13.11351013 8.84701538 C-15.0319494 9.96409232 -16.95346518 11.07575806 -18.875 12.1875 C-20.84350448 13.33235529 -22.81114479 14.47868514 -24.77870178 15.62516785 C-26.06892449 16.37691583 -27.35939885 17.12823207 -28.65013123 17.87910461 C-33.5598452 20.73675078 -38.44717739 23.62981571 -43.3125 26.5625 C-43.91497559 26.92561279 -44.51745117 27.28872559 -45.13818359 27.6628418 C-46.42627845 28.44053349 -47.71331014 29.21998594 -49 30 C-48.60167969 30.70125 -48.20335937 31.4025 -47.79296875 32.125 C-39.76791444 46.49590018 -39.76791444 46.49590018 -40 54 C-56.01869174 58.82991613 -70.50446004 62.12913534 -87.3125 62.3125 C-88.99605591 62.33932861 -88.99605591 62.33932861 -90.71362305 62.36669922 C-97.20333217 62.3599255 -102.09207833 61.72728662 -108 59 C-108.02686553 57.02090602 -108.04633375 55.04171029 -108.0625 53.0625 C-108.07410156 51.96035156 -108.08570313 50.85820313 -108.09765625 49.72265625 C-108 47 -108 47 -107 46 C-104.05097037 45.55398423 -101.11273772 45.16327203 -98.15234375 44.80859375 C-97.2659169 44.69902847 -96.37949005 44.5894632 -95.46620178 44.47657776 C-92.62377949 44.12618842 -89.78066748 43.78178513 -86.9375 43.4375 C-85.01492572 43.20156461 -83.09239897 42.96524161 -81.16992188 42.72851562 C-76.44715511 42.14783799 -71.7237612 41.57252932 -67 41 C-79.52994907 42.27034893 -92.01500275 43.72907468 -104.49731445 45.40087891 C-106.49663094 45.66777047 -108.49635689 45.93158915 -110.49609375 46.1953125 C-111.65294678 46.35016113 -112.8097998 46.50500977 -114.00170898 46.66455078 C-117 47 -117 47 -121 47 C-120.03223902 50.79547921 -120.03223902 50.79547921 -118 54 C-117.86041067 56.51260796 -117.90847194 58.6545138 -118.5546875 61.09375 C-119.18891938 65.23294756 -118.70088639 69.10397728 -118.25 73.25 C-118.15928223 74.13534424 -118.06856445 75.02068848 -117.97509766 75.93286133 C-117.36329609 81.58115498 -116.47376638 87.11616995 -115.375 92.6875 C-113.71313096 101.14801585 -113.70965452 109.40792437 -114 118 C-114.66 116.68 -115.32 115.36 -116 114 C-116.66 114 -117.32 114 -118 114 C-118.66 112.02 -119.32 110.04 -120 108 C-120.66 108 -121.32 108 -122 108 C-123.13012105 97.74099813 -123.11660861 87.55309541 -123.0625 77.25 C-123.05747197 75.57031384 -123.05291138 73.89062622 -123.04882812 72.2109375 C-123.03793264 68.14058804 -123.02074084 64.07031071 -123 60 C-124.485 59.505 -124.485 59.505 -126 59 C-126.19834137 54.73566065 -125.68610848 51.89663652 -124 48 C-124.66531738 48.09087891 -125.33063477 48.18175781 -126.01611328 48.27539062 C-129.0518675 48.68769923 -132.08840905 49.09390169 -135.125 49.5 C-136.17171875 49.64308594 -137.2184375 49.78617188 -138.296875 49.93359375 C-143.22695492 50.58885754 -148.01296747 51.20707401 -153 51 C-150.54912878 48.25545475 -147.89605299 46.67897627 -144.6796875 44.91796875 C-143.59872803 44.32234131 -142.51776855 43.72671387 -141.40405273 43.11303711 C-140.54153397 42.64243362 -140.54153397 42.64243362 -139.66159058 42.162323 C-137.85395687 41.17601817 -136.04972483 40.18374346 -134.24633789 39.18969727 C-131.74574267 37.81157578 -129.24407537 36.43543164 -126.74169922 35.06054688 C-120.95868248 31.87965361 -115.19736389 28.66010407 -109.4375 25.4375 C-108.43509277 24.87893311 -107.43268555 24.32036621 -106.39990234 23.74487305 C-105.44164551 23.20902588 -104.48338867 22.67317871 -103.49609375 22.12109375 C-102.56611572 21.60450195 -101.6361377 21.08791016 -100.67797852 20.55566406 C-98.94109163 19.54668938 -97.23451821 18.48285949 -95.57006836 17.35839844 C-88.58593028 12.69327097 -81.93577672 11.48573404 -73.6875 10.375 C-72.33021009 10.17593793 -70.97319771 9.97497533 -69.61645508 9.7722168 C-66.11323 9.25490258 -62.60683285 8.76516271 -59.09814453 8.28643799 C-57.02851476 8.00389283 -54.95949699 7.71723635 -52.890625 7.42919922 C-42.56045107 5.99298095 -42.56045107 5.99298095 -37.61791992 5.34326172 C-31.75838558 4.56705818 -25.97698074 3.66302119 -20.19116211 2.45288086 C-17.20323043 1.83531949 -14.20207244 1.34335527 -11.1875 0.875 C-9.60001953 0.62363281 -9.60001953 0.62363281 -7.98046875 0.3671875 C-5.27948135 0.03443152 -2.71694531 -0.07030912 0 0 Z " fill="#50504F" transform="translate(187,75)" data-index="3"></path>
<path d="M0 0 C2.39453125 0.14453125 2.39453125 0.14453125 5 1 C6.51171875 3.07421875 6.51171875 3.07421875 7.6875 5.6875 C8.09742188 6.59242187 8.50734375 7.49734375 8.9296875 8.4296875 C10.91205242 13.19025726 12.09504268 16.84177444 12 22 C-4.01869174 26.82991613 -18.50446004 30.12913534 -35.3125 30.3125 C-36.99605591 30.33932861 -36.99605591 30.33932861 -38.71362305 30.36669922 C-45.20333217 30.3599255 -50.09207833 29.72728662 -56 27 C-56.02686553 25.02090602 -56.04633375 23.04171029 -56.0625 21.0625 C-56.07410156 19.96035156 -56.08570312 18.85820313 -56.09765625 17.72265625 C-56 15 -56 15 -55 14 C-52.21419386 13.65165494 -49.43835374 13.35746732 -46.64453125 13.08984375 C-44.88849038 12.90339427 -43.13263601 12.71518149 -41.37695312 12.52539062 C-38.6160672 12.22910399 -35.85592843 11.94153233 -33.09106445 11.68481445 C-21.10878774 10.55736495 -8.98809497 8.98809497 0 0 Z " fill="#4D4E4E" transform="translate(135,107)" data-index="4"></path>
<path d="M0 0 C0.495 1.485 0.495 1.485 1 3 C0.41009277 3.27247559 -0.17981445 3.54495117 -0.78759766 3.82568359 C-7.76766671 7.16788726 -14.03299783 11.20716992 -20.375 15.625 C-21.34566406 16.29273437 -22.31632812 16.96046875 -23.31640625 17.6484375 C-28.32198702 21.07829342 -28.32198702 21.07829342 -33.17822266 24.71240234 C-35 26 -35 26 -37 26 C-36.03223902 29.79547921 -36.03223902 29.79547921 -34 33 C-33.86041067 35.51260796 -33.90847194 37.6545138 -34.5546875 40.09375 C-35.18891938 44.23294756 -34.70088639 48.10397728 -34.25 52.25 C-34.15928223 53.13534424 -34.06856445 54.02068848 -33.97509766 54.93286133 C-33.36329609 60.58115498 -32.47376638 66.11616995 -31.375 71.6875 C-29.71313096 80.14801585 -29.70965452 88.40792437 -30 97 C-30.66 95.68 -31.32 94.36 -32 93 C-32.66 93 -33.32 93 -34 93 C-34.99 90.03 -34.99 90.03 -36 87 C-36.66 87 -37.32 87 -38 87 C-39.13012105 76.74099813 -39.11660861 66.55309541 -39.0625 56.25 C-39.05747197 54.57031384 -39.05291138 52.89062622 -39.04882812 51.2109375 C-39.03793264 47.14058804 -39.02074084 43.07031071 -39 39 C-39.99 38.67 -40.98 38.34 -42 38 C-42.35732809 33.11651615 -41.69155862 29.11502723 -39 25 C-36.42000122 22.69023464 -33.57346088 20.92847473 -30.625 19.125 C-29.0034051 18.08802284 -27.3823154 17.05025529 -25.76171875 16.01171875 C-24.95911621 15.50560059 -24.15651367 14.99948242 -23.32958984 14.47802734 C-19.98964148 12.35896977 -16.70472941 10.16656188 -13.4375 7.9375 C-12.40496094 7.24527344 -11.37242188 6.55304688 -10.30859375 5.83984375 C-7.74342133 4.13828373 -7.74342133 4.13828373 -7 1 C-4.53721199 -0.231394 -2.7204945 -0.07159196 0 0 Z " fill="#CD9C39" transform="translate(103,96)" data-index="5"></path>
<path d="M0 0 C2.5 2.125 2.5 2.125 4 5 C4.07481382 9.26438773 3.64839572 11.23718151 0.875 14.5 C-2.97148295 16.50686067 -4.88546541 16.27176524 -9 15 C-11.87406793 12.42070826 -12.83879082 10.77380407 -13.625 7 C-12.90385191 3.53848918 -11.64268867 1.94288605 -8.78515625 -0.14453125 C-5.53599179 -1.70157067 -3.31572655 -1.10524218 0 0 Z " fill="#F4FAFB" transform="translate(177,172)" data-index="6"></path>
<path d="M0 0 C2.4375 1.6875 2.4375 1.6875 4 4 C4.63924557 7.7555677 4.29008409 9.47784863 2.4375 12.8125 C-0.76996843 15.69099731 -2.7149334 16.07517661 -7 16 C-9.875 14.5 -9.875 14.5 -12 12 C-13.0625 8.5625 -13.0625 8.5625 -13 5 C-9.25333712 -0.9429825 -6.7508412 -1.51311958 0 0 Z " fill="#F4FAFB" transform="translate(149,172)" data-index="7"></path>
<path d="M0 0 C2.61904157 0.53863308 3.76638607 0.97425118 5.875 2.6875 C7.28719248 6.04145713 7.32519252 8.46095988 6.875 12.0625 C4.85279734 15.01802697 3.34903861 15.88731182 0 17.125 C-3.125 17.0625 -3.125 17.0625 -6.5 15.0625 C-9.125 12.0625 -9.125 12.0625 -9.8125 8.5625 C-9.125 5.0625 -9.125 5.0625 -7.125 2.0625 C-4.05807963 0.01788642 -3.45606293 -0.26143649 0 0 Z " fill="#F6FBFC" transform="translate(116.125,170.9375)" data-index="8"></path>
<path d="M0 0 C3.38677089 2.45000447 4.78698584 3.86392446 5.5625 8 C4.84202557 11.8425303 3.99097304 13.45767292 1 16 C-2.99893269 16.94237143 -5.98105682 16.61136591 -9.5 14.5 C-11.61897146 10.9683809 -11.79841448 8.01676563 -11 4 C-8.16650967 -0.53358453 -5.10426635 -0.80593679 0 0 Z " fill="#FFFCFA" transform="translate(209,116)" data-index="9"></path>
<path d="M0 0 C3.8425303 0.72047443 5.45767292 1.57152696 8 4.5625 C8.66017005 7.36391726 8.60984064 9.75493175 8 12.5625 C6.4375 15.0625 6.4375 15.0625 4 16.5625 C0.5625 17.125 0.5625 17.125 -3 16.5625 C-6.38121991 14.11651113 -7.76936783 12.66953441 -8.625 8.5625 C-7.58351809 3.56338683 -5.03644185 0.94433285 0 0 Z " fill="#FFFCFB" transform="translate(235,115.4375)" data-index="10"></path>
<path d="M0 0 C3.38677089 2.45000447 4.78698584 3.86392446 5.5625 8 C4.88398909 11.61872485 3.49661422 13.3473474 1 16 C-3.38889325 15.33501617 -6.9811485 13.81242323 -11 12 C-11.48192771 4.77108434 -11.48192771 4.77108434 -9.4375 1.5 C-6.00863886 -0.61006839 -3.95779649 -0.62491523 0 0 Z " fill="#FDFCFB" transform="translate(181,116)" data-index="11"></path>
<path d="M0 0 C0.33 0 0.66 0 1 0 C1.04898438 0.77085937 1.09796875 1.54171875 1.1484375 2.3359375 C1.22320312 3.33882812 1.29796875 4.34171875 1.375 5.375 C1.44460937 6.37273437 1.51421875 7.37046875 1.5859375 8.3984375 C1.76363964 11.15508879 1.76363964 11.15508879 4 13 C4.125 15.625 4.125 15.625 4 18 C4.66 18 5.32 18 6 18 C6.33 16.02 6.66 14.04 7 12 C7.33 12 7.66 12 8 12 C9.17700048 16.62459244 9.11408412 21.07866462 9.0625 25.8125 C9.05798828 26.60076172 9.05347656 27.38902344 9.04882812 28.20117188 C9.03711312 30.13414761 9.01917998 32.06708393 9 34 C8.34 32.68 7.68 31.36 7 30 C6.34 30 5.68 30 5 30 C4.34 28.02 3.68 26.04 3 24 C2.34 24 1.68 24 1 24 C0.20318916 15.97497656 -0.12867289 8.06350113 0 0 Z " fill="#DDBB78" transform="translate(64,159)" data-index="12"></path>
<path d="M0 0 C0.495 1.485 0.495 1.485 1 3 C0.41009277 3.27247559 -0.17981445 3.54495117 -0.78759766 3.82568359 C-7.76766671 7.16788726 -14.03299783 11.20716992 -20.375 15.625 C-21.34566406 16.29273437 -22.31632812 16.96046875 -23.31640625 17.6484375 C-28.31840009 21.03678547 -28.31840009 21.03678547 -33.05322266 24.77490234 C-35 26 -35 26 -37.25 25.6875 C-37.8275 25.460625 -38.405 25.23375 -39 25 C-38.52280518 24.68361572 -38.04561035 24.36723145 -37.55395508 24.04125977 C-32.82171145 20.90138517 -28.0967224 17.75087491 -23.37792969 14.59082031 C-21.88269267 13.59051596 -20.38613703 12.59217703 -18.88769531 11.59667969 C-17.06560554 10.38470142 -15.25060937 9.16285605 -13.4375 7.9375 C-12.40496094 7.24527344 -11.37242188 6.55304688 -10.30859375 5.83984375 C-7.74342133 4.13828373 -7.74342133 4.13828373 -7 1 C-4.53721199 -0.231394 -2.7204945 -0.07159196 0 0 Z " fill="#BF994E" transform="translate(103,96)" data-index="13"></path>
<path d="M0 0 C0.33 0 0.66 0 1 0 C1 5.61 1 11.22 1 17 C0.34 15.68 -0.32 14.36 -1 13 C-1.66 13 -2.32 13 -3 13 C-3.66 11.02 -4.32 9.04 -5 7 C-5.66 7 -6.32 7 -7 7 C-6.625 5.0625 -6.625 5.0625 -6 3 C-5.34 2.67 -4.68 2.34 -4 2 C-3.67 4.31 -3.34 6.62 -3 9 C-2.34 9 -1.68 9 -1 9 C-0.67 6.03 -0.34 3.06 0 0 Z " fill="#EAD6AD" transform="translate(72,176)" data-index="14"></path>
<path d="M0 0 C0.66 0.33 1.32 0.66 2 1 C0.35 4.3 -1.3 7.6 -3 11 C-3.99 10.01 -4.98 9.02 -6 8 C-6 7.34 -6 6.68 -6 6 C-6.66 5.67 -7.32 5.34 -8 5 C-6.71475739 4.13619741 -5.42157581 3.28419631 -4.125 2.4375 C-3.04605469 1.72400391 -3.04605469 1.72400391 -1.9453125 0.99609375 C-1.30335938 0.66738281 -0.66140625 0.33867188 0 0 Z " fill="#F1EEEC" transform="translate(145,100)" data-index="15"></path>
<path d="M0 0 C1.4606285 2.64738916 2 3.89448334 2 7 C2.99 6.67 3.98 6.34 5 6 C5 7.65 5 9.3 5 11 C4.01 10.67 3.02 10.34 2 10 C1.3125 7.9375 1.3125 7.9375 1 6 C0.01 6 -0.98 6 -2 6 C-2 4.35 -2 2.7 -2 1 C-1.34 0.67 -0.68 0.34 0 0 Z " fill="#F6EDDB" transform="translate(67,182)" data-index="16"></path>
<path d="M0 0 C0.33 0 0.66 0 1 0 C1.04898438 0.74765625 1.09796875 1.4953125 1.1484375 2.265625 C1.22320312 3.25046875 1.29796875 4.2353125 1.375 5.25 C1.44460937 6.22453125 1.51421875 7.1990625 1.5859375 8.203125 C1.98702583 10.91236314 2.77665939 12.59586976 4 15 C3.67 15.66 3.34 16.32 3 17 C2.34 17 1.68 17 1 17 C0.09586327 13.16275828 -0.10576898 9.62497726 -0.0625 5.6875 C-0.05347656 4.61886719 -0.04445312 3.55023438 -0.03515625 2.44921875 C-0.02355469 1.64097656 -0.01195312 0.83273438 0 0 Z " fill="#DAB66D" transform="translate(64,159)" data-index="17"></path>
<path d="M0 0 C1.65 0 3.3 0 5 0 C5 0.66 5 1.32 5 2 C2.69 2.66 0.38 3.32 -2 4 C-1.34 2.68 -0.68 1.36 0 0 Z " fill="#C69B43" transform="translate(99,97)" data-index="18"></path>
</svg>